<svg width="17" height="20" viewBox="0 0 17 20" fill="none" xmlns="http://www.w3.org/2000/svg">
<path d="M10.5745 10.2011L16.577 3.62418C16.8399 3.33549 16.9875 2.94395 16.9875 2.53569C16.9875 2.12743 16.8399 1.73589 16.577 1.4472C16.3141 1.15852 15.9576 0.996338 15.5859 0.996338C15.2142 0.996338 14.8577 1.15852 14.5948 1.4472L8.60629 8.03944L2.61778 1.4472C2.35492 1.15852 1.99841 0.996338 1.62667 0.996338C1.25494 0.996338 0.898425 1.15852 0.635568 1.4472C0.37271 1.73589 0.225039 2.12743 0.225039 2.53569C0.225039 2.94395 0.37271 3.33549 0.635568 3.62418L6.63804 10.2011L0.635568 16.778C0.50473 16.9205 0.400882 17.0901 0.330013 17.2769C0.259144 17.4637 0.222656 17.6641 0.222656 17.8665C0.222656 18.0689 0.259144 18.2692 0.330013 18.4561C0.400882 18.6429 0.50473 18.8124 0.635568 18.955C0.765337 19.0987 0.919728 19.2127 1.08983 19.2905C1.25994 19.3684 1.44239 19.4084 1.62667 19.4084C1.81095 19.4084 1.99341 19.3684 2.16351 19.2905C2.33362 19.2127 2.48801 19.0987 2.61778 18.955L8.60629 12.3627L14.5948 18.955C14.7246 19.0987 14.879 19.2127 15.0491 19.2905C15.2192 19.3684 15.4016 19.4084 15.5859 19.4084C15.7702 19.4084 15.9526 19.3684 16.1227 19.2905C16.2928 19.2127 16.4472 19.0987 16.577 18.955C16.7078 18.8124 16.8117 18.6429 16.8826 18.4561C16.9534 18.2692 16.9899 18.0689 16.9899 17.8665C16.9899 17.6641 16.9534 17.4637 16.8826 17.2769C16.8117 17.0901 16.7078 16.9205 16.577 16.778L10.5745 10.2011Z" fill="#231F20"/>
</svg>
