<svg width="22" height="20" viewBox="0 0 22 20" fill="none" xmlns="http://www.w3.org/2000/svg">
<path d="M3.71019 1.29C3.61695 1.19676 3.50626 1.1228 3.38443 1.07234C3.26261 1.02188 3.13204 0.99591 3.00019 0.99591C2.86833 0.99591 2.73776 1.02188 2.61594 1.07234C2.49411 1.1228 2.38342 1.19676 2.29019 1.29C2.10188 1.47831 1.99609 1.7337 1.99609 2C1.99609 2.2663 2.10188 2.5217 2.29019 2.71L7.92019 8.34C7.56399 9.00262 7.43077 9.76237 7.54027 10.5066C7.64978 11.2509 7.99617 11.9401 8.52812 12.4721C9.06007 13.004 9.74926 13.3504 10.4935 13.4599C11.2378 13.5694 11.9976 13.4362 12.6602 13.08L18.2902 18.71C18.3831 18.8037 18.4937 18.8781 18.6156 18.9289C18.7375 18.9797 18.8682 19.0058 19.0002 19.0058C19.1322 19.0058 19.2629 18.9797 19.3848 18.9289C19.5066 18.8781 19.6172 18.8037 19.7102 18.71C19.8039 18.617 19.8783 18.5064 19.9291 18.3846C19.9798 18.2627 20.006 18.132 20.006 18C20.006 17.868 19.9798 17.7373 19.9291 17.6154C19.8783 17.4936 19.8039 17.383 19.7102 17.29L3.71019 1.29ZM11.0002 11.5C10.6024 11.5 10.2208 11.342 9.93953 11.0607C9.65822 10.7794 9.50019 10.3978 9.50019 10C9.50019 10 9.50019 9.95 9.50019 9.93L11.0602 11.49L11.0002 11.5Z" fill="#838383"/>
<path d="M11.2201 15C6.92007 15.1 4.10007 11.41 3.22007 9.99999C3.84654 9.00069 4.59943 8.08646 5.46007 7.27999L4.00007 5.86999C2.87139 6.93346 1.90448 8.15643 1.13007 9.49999C1.0423 9.65201 0.996094 9.82446 0.996094 9.99999C0.996094 10.1755 1.0423 10.348 1.13007 10.5C1.76007 11.59 5.13007 17 11.0201 17H11.2701C12.3776 16.9671 13.4708 16.7404 14.5001 16.33L12.9201 14.75C12.3644 14.8962 11.7943 14.98 11.2201 15Z" fill="#838383"/>
<path d="M20.87 9.50001C20.23 8.39001 16.7 2.82001 10.73 3.00001C9.62245 3.03286 8.52924 3.25963 7.5 3.67001L9.08 5.25001C9.63563 5.10384 10.2058 5.01999 10.78 5.00001C15.07 4.89001 17.89 8.59001 18.78 10C18.1381 11.0023 17.3682 11.9167 16.49 12.72L18 14.13C19.1428 13.0693 20.1234 11.8462 20.91 10.5C20.9918 10.3445 21.0311 10.1702 21.0241 9.99464C21.0171 9.81909 20.9639 9.64849 20.87 9.50001Z" fill="#838383"/>
</svg>
